<svg width="487" height="309" viewBox="0 0 487 309" fill="none" xmlns="http://www.w3.org/2000/svg">
<rect width="487" height="309" fill="white"/>
<path d="M94.9943 260.031V249.278H96.9119C97.5653 248.729 98.1761 247.948 98.7443 246.935C99.3125 245.921 99.7955 244.553 100.193 242.83C100.591 241.106 100.866 238.895 101.017 236.196L101.699 223.909H119.639V249.278H122.935V259.989H118.73V253H99.1989V260.031H94.9943ZM102.082 249.278H115.435V227.688H105.676L105.222 236.196C105.098 238.251 104.895 240.098 104.611 241.736C104.336 243.374 103.981 244.823 103.545 246.082C103.119 247.332 102.632 248.398 102.082 249.278ZM136.592 253.44C134.547 253.44 132.762 252.972 131.237 252.034C129.713 251.097 128.529 249.785 127.686 248.099C126.843 246.414 126.422 244.444 126.422 242.19C126.422 239.927 126.843 237.948 127.686 236.253C128.529 234.558 129.713 233.241 131.237 232.304C132.762 231.366 134.547 230.898 136.592 230.898C138.638 230.898 140.423 231.366 141.947 232.304C143.472 233.241 144.656 234.558 145.499 236.253C146.341 237.948 146.763 239.927 146.763 242.19C146.763 244.444 146.341 246.414 145.499 248.099C144.656 249.785 143.472 251.097 141.947 252.034C140.423 252.972 138.638 253.44 136.592 253.44ZM136.607 249.875C137.932 249.875 139.031 249.525 139.902 248.824C140.773 248.123 141.417 247.19 141.834 246.026C142.26 244.861 142.473 243.578 142.473 242.176C142.473 240.784 142.26 239.506 141.834 238.341C141.417 237.167 140.773 236.224 139.902 235.514C139.031 234.804 137.932 234.449 136.607 234.449C135.271 234.449 134.163 234.804 133.283 235.514C132.411 236.224 131.763 237.167 131.337 238.341C130.92 239.506 130.712 240.784 130.712 242.176C130.712 243.578 130.92 244.861 131.337 246.026C131.763 247.19 132.411 248.123 133.283 248.824C134.163 249.525 135.271 249.875 136.607 249.875ZM168.336 223.057L170.097 225.741C169.444 226.338 168.701 226.764 167.867 227.02C167.043 227.266 166.092 227.422 165.012 227.489C163.933 227.545 162.697 227.598 161.305 227.645C159.733 227.692 158.44 228.033 157.427 228.668C156.414 229.293 155.632 230.221 155.083 231.452C154.543 232.673 154.193 234.207 154.032 236.054H154.302C155.012 234.7 155.997 233.687 157.256 233.014C158.525 232.342 159.951 232.006 161.532 232.006C163.293 232.006 164.861 232.408 166.234 233.213C167.607 234.018 168.686 235.197 169.472 236.75C170.268 238.294 170.665 240.183 170.665 242.418C170.665 244.681 170.249 246.636 169.415 248.284C168.592 249.932 167.427 251.205 165.921 252.105C164.425 252.995 162.659 253.44 160.623 253.44C158.587 253.44 156.811 252.981 155.296 252.062C153.79 251.134 152.621 249.761 151.788 247.943C150.964 246.125 150.552 243.881 150.552 241.21V239.051C150.552 234.061 151.442 230.306 153.222 227.787C155.003 225.268 157.664 223.975 161.205 223.909C162.351 223.881 163.374 223.876 164.273 223.895C165.173 223.904 165.959 223.862 166.631 223.767C167.313 223.663 167.881 223.426 168.336 223.057ZM160.637 249.875C161.821 249.875 162.839 249.577 163.691 248.98C164.553 248.374 165.216 247.517 165.68 246.409C166.144 245.301 166.376 243.994 166.376 242.489C166.376 241.011 166.144 239.757 165.68 238.724C165.216 237.692 164.553 236.906 163.691 236.366C162.829 235.817 161.797 235.543 160.594 235.543C159.704 235.543 158.909 235.699 158.208 236.011C157.507 236.314 156.906 236.764 156.404 237.361C155.912 237.957 155.528 238.687 155.254 239.548C154.988 240.401 154.846 241.381 154.827 242.489C154.827 244.742 155.344 246.537 156.376 247.872C157.417 249.207 158.838 249.875 160.637 249.875ZM181.759 253.483C180.377 253.483 179.127 253.227 178.009 252.716C176.892 252.195 176.006 251.442 175.353 250.457C174.709 249.473 174.387 248.265 174.387 246.835C174.387 245.604 174.624 244.591 175.097 243.795C175.571 243 176.21 242.37 177.015 241.906C177.82 241.442 178.719 241.092 179.714 240.855C180.708 240.618 181.721 240.438 182.754 240.315C184.06 240.164 185.121 240.041 185.935 239.946C186.75 239.842 187.342 239.676 187.711 239.449C188.08 239.222 188.265 238.852 188.265 238.341V238.241C188.265 237.001 187.915 236.04 187.214 235.358C186.522 234.676 185.49 234.335 184.117 234.335C182.687 234.335 181.56 234.652 180.737 235.287C179.922 235.912 179.359 236.608 179.046 237.375L175.055 236.466C175.528 235.14 176.219 234.07 177.129 233.256C178.047 232.432 179.103 231.835 180.296 231.466C181.489 231.087 182.744 230.898 184.06 230.898C184.932 230.898 185.855 231.002 186.83 231.21C187.815 231.409 188.734 231.778 189.586 232.318C190.448 232.858 191.153 233.63 191.702 234.634C192.252 235.628 192.526 236.92 192.526 238.511V253H188.379V250.017H188.208C187.933 250.566 187.522 251.106 186.972 251.636C186.423 252.167 185.718 252.607 184.856 252.957C183.994 253.308 182.962 253.483 181.759 253.483ZM182.683 250.074C183.857 250.074 184.861 249.842 185.694 249.378C186.537 248.914 187.176 248.308 187.612 247.56C188.057 246.802 188.279 245.992 188.279 245.131V242.318C188.128 242.47 187.834 242.612 187.398 242.744C186.972 242.867 186.485 242.976 185.935 243.071C185.386 243.156 184.851 243.237 184.33 243.312C183.809 243.379 183.374 243.436 183.023 243.483C182.2 243.587 181.447 243.762 180.765 244.009C180.093 244.255 179.553 244.61 179.146 245.074C178.748 245.528 178.549 246.134 178.549 246.892C178.549 247.943 178.937 248.739 179.714 249.278C180.49 249.809 181.48 250.074 182.683 250.074ZM198.183 253V231.182H207.232C209.694 231.182 211.644 231.707 213.084 232.759C214.523 233.8 215.243 235.216 215.243 237.006C215.243 238.284 214.836 239.297 214.021 240.045C213.207 240.794 212.127 241.295 210.783 241.551C211.758 241.665 212.653 241.958 213.467 242.432C214.282 242.896 214.935 243.521 215.428 244.307C215.929 245.093 216.18 246.03 216.18 247.119C216.18 248.275 215.882 249.297 215.286 250.188C214.689 251.068 213.822 251.759 212.686 252.261C211.559 252.754 210.2 253 208.609 253H198.183ZM202.175 249.449H208.609C209.661 249.449 210.484 249.198 211.081 248.696C211.678 248.194 211.976 247.512 211.976 246.651C211.976 245.637 211.678 244.842 211.081 244.264C210.484 243.677 209.661 243.384 208.609 243.384H202.175V249.449ZM202.175 240.273H207.274C208.07 240.273 208.751 240.159 209.32 239.932C209.897 239.705 210.338 239.383 210.641 238.966C210.953 238.54 211.109 238.038 211.109 237.46C211.109 236.617 210.764 235.959 210.072 235.486C209.381 235.012 208.434 234.776 207.232 234.776H202.175V240.273ZM225.001 247.048L234.618 231.182H239.192V253H235.03V237.119L225.456 253H220.839V231.182H225.001V247.048ZM242.196 234.847V231.182H260.605V234.847H253.489V253H249.341V234.847H242.196ZM268.293 238.682H274.629C277.299 238.682 279.354 239.345 280.793 240.67C282.233 241.996 282.952 243.705 282.952 245.798C282.952 247.162 282.63 248.388 281.987 249.477C281.343 250.566 280.4 251.428 279.16 252.062C277.919 252.688 276.409 253 274.629 253H265.097V231.182H269.259V249.335H274.629C275.85 249.335 276.854 249.018 277.64 248.384C278.426 247.74 278.819 246.92 278.819 245.926C278.819 244.875 278.426 244.018 277.64 243.355C276.854 242.683 275.85 242.347 274.629 242.347H268.293V238.682ZM307.69 260.429V223.909H311.937V260.429H307.69ZM307.69 253.44C306.146 253.44 304.74 253.175 303.471 252.645C302.202 252.105 301.108 251.338 300.19 250.344C299.271 249.349 298.561 248.161 298.059 246.778C297.567 245.396 297.32 243.866 297.32 242.19C297.32 240.495 297.567 238.956 298.059 237.574C298.561 236.191 299.271 235.003 300.19 234.009C301.108 233.014 302.202 232.247 303.471 231.707C304.74 231.168 306.146 230.898 307.69 230.898H308.741V253.44H307.69ZM307.69 249.861H308.286V234.477H307.69C306.667 234.477 305.777 234.686 305.019 235.102C304.262 235.509 303.632 236.073 303.13 236.793C302.628 237.503 302.249 238.322 301.994 239.25C301.747 240.178 301.624 241.158 301.624 242.19C301.624 243.573 301.847 244.847 302.292 246.011C302.737 247.167 303.409 248.099 304.309 248.81C305.209 249.51 306.335 249.861 307.69 249.861ZM311.937 253.44H310.871V230.898H311.937C313.48 230.898 314.887 231.168 316.156 231.707C317.424 232.247 318.513 233.014 319.423 234.009C320.341 235.003 321.047 236.191 321.539 237.574C322.041 238.956 322.292 240.495 322.292 242.19C322.292 243.866 322.041 245.396 321.539 246.778C321.047 248.161 320.341 249.349 319.423 250.344C318.513 251.338 317.424 252.105 316.156 252.645C314.887 253.175 313.48 253.44 311.937 253.44ZM311.937 249.861C312.96 249.861 313.85 249.662 314.607 249.264C315.365 248.857 315.995 248.298 316.496 247.588C316.998 246.868 317.372 246.049 317.619 245.131C317.865 244.203 317.988 243.223 317.988 242.19C317.988 240.817 317.765 239.548 317.32 238.384C316.885 237.209 316.217 236.267 315.317 235.557C314.418 234.837 313.291 234.477 311.937 234.477H311.326V249.861H311.937ZM336.202 253.44C334.156 253.44 332.371 252.972 330.847 252.034C329.322 251.097 328.138 249.785 327.295 248.099C326.453 246.414 326.031 244.444 326.031 242.19C326.031 239.927 326.453 237.948 327.295 236.253C328.138 234.558 329.322 233.241 330.847 232.304C332.371 231.366 334.156 230.898 336.202 230.898C338.247 230.898 340.032 231.366 341.557 232.304C343.081 233.241 344.265 234.558 345.108 236.253C345.951 237.948 346.372 239.927 346.372 242.19C346.372 244.444 345.951 246.414 345.108 248.099C344.265 249.785 343.081 251.097 341.557 252.034C340.032 252.972 338.247 253.44 336.202 253.44ZM336.216 249.875C337.542 249.875 338.64 249.525 339.511 248.824C340.383 248.123 341.027 247.19 341.443 246.026C341.869 244.861 342.082 243.578 342.082 242.176C342.082 240.784 341.869 239.506 341.443 238.341C341.027 237.167 340.383 236.224 339.511 235.514C338.64 234.804 337.542 234.449 336.216 234.449C334.881 234.449 333.773 234.804 332.892 235.514C332.021 236.224 331.372 237.167 330.946 238.341C330.529 239.506 330.321 240.784 330.321 242.176C330.321 243.578 330.529 244.861 330.946 246.026C331.372 247.19 332.021 248.123 332.892 248.824C333.773 249.525 334.881 249.875 336.216 249.875ZM348.485 234.847V231.182H366.894V234.847H359.778V253H355.63V234.847H348.485ZM379.561 253.44C377.516 253.44 375.731 252.972 374.206 252.034C372.681 251.097 371.498 249.785 370.655 248.099C369.812 246.414 369.391 244.444 369.391 242.19C369.391 239.927 369.812 237.948 370.655 236.253C371.498 234.558 372.681 233.241 374.206 232.304C375.731 231.366 377.516 230.898 379.561 230.898C381.607 230.898 383.392 231.366 384.916 232.304C386.441 233.241 387.625 234.558 388.467 236.253C389.31 237.948 389.732 239.927 389.732 242.19C389.732 244.444 389.31 246.414 388.467 248.099C387.625 249.785 386.441 251.097 384.916 252.034C383.392 252.972 381.607 253.44 379.561 253.44ZM379.575 249.875C380.901 249.875 382 249.525 382.871 248.824C383.742 248.123 384.386 247.19 384.803 246.026C385.229 244.861 385.442 243.578 385.442 242.176C385.442 240.784 385.229 239.506 384.803 238.341C384.386 237.167 383.742 236.224 382.871 235.514C382 234.804 380.901 234.449 379.575 234.449C378.24 234.449 377.132 234.804 376.251 235.514C375.38 236.224 374.732 237.167 374.305 238.341C373.889 239.506 373.68 240.784 373.68 242.176C373.68 243.578 373.889 244.861 374.305 246.026C374.732 247.19 375.38 248.123 376.251 248.824C377.132 249.525 378.24 249.875 379.575 249.875Z" fill="#BFBFBF"/>
<path fill-rule="evenodd" clip-rule="evenodd" d="M154 18H332V196H154V18ZM141 5H154H332H345V18V196V209H332H154H141V196V18V5ZM237 27H250V102H325V115H250V190H237V115H162V102H237V27Z" fill="#D9D9D9"/>
</svg>
