<svg width="427" height="63" viewBox="0 0 427 63" fill="none" xmlns="http://www.w3.org/2000/svg">
<rect width="427" height="63" rx="25" fill="url(#paint0_linear_220_4)" fill-opacity="0.9"/>
<path d="M99.358 27.3693H94.9261C94.7557 26.4223 94.4384 25.589 93.9744 24.8693C93.5104 24.1496 92.9422 23.5388 92.2699 23.0369C91.5975 22.535 90.8447 22.1562 90.0114 21.9006C89.1875 21.6449 88.3116 21.517 87.3835 21.517C85.7074 21.517 84.2064 21.9384 82.8807 22.7812C81.5644 23.6241 80.5227 24.8598 79.7557 26.4886C78.9981 28.1174 78.6193 30.1061 78.6193 32.4545C78.6193 34.822 78.9981 36.8201 79.7557 38.4489C80.5227 40.0777 81.5691 41.3087 82.8949 42.142C84.2206 42.9754 85.7121 43.392 87.3693 43.392C88.2879 43.392 89.1591 43.2689 89.983 43.0227C90.8163 42.767 91.5691 42.393 92.2415 41.9006C92.9138 41.4081 93.482 40.8068 93.946 40.0966C94.4195 39.3769 94.7462 38.553 94.9261 37.625L99.358 37.6392C99.1212 39.0691 98.6619 40.3854 97.9801 41.5881C97.3078 42.7812 96.4413 43.8134 95.3807 44.6847C94.3295 45.5464 93.1269 46.214 91.7727 46.6875C90.4186 47.161 88.9413 47.3977 87.3409 47.3977C84.822 47.3977 82.5777 46.8011 80.608 45.608C78.6383 44.4053 77.0852 42.6866 75.9489 40.4517C74.822 38.2169 74.2585 35.5511 74.2585 32.4545C74.2585 29.3485 74.8267 26.6828 75.9631 24.4574C77.0994 22.2225 78.6525 20.5085 80.6222 19.3153C82.5919 18.1127 84.8314 17.5114 87.3409 17.5114C88.8845 17.5114 90.3239 17.7339 91.6591 18.179C93.0038 18.6146 94.2112 19.2585 95.2812 20.1108C96.3513 20.9536 97.2367 21.9858 97.9375 23.2074C98.6383 24.4195 99.1117 25.8068 99.358 27.3693ZM113.46 47.4403C111.414 47.4403 109.629 46.9716 108.104 46.0341C106.58 45.0966 105.396 43.785 104.553 42.0994C103.71 40.4138 103.289 38.4441 103.289 36.1903C103.289 33.9271 103.71 31.9479 104.553 30.2528C105.396 28.5578 106.58 27.2415 108.104 26.304C109.629 25.3665 111.414 24.8977 113.46 24.8977C115.505 24.8977 117.29 25.3665 118.815 26.304C120.339 27.2415 121.523 28.5578 122.366 30.2528C123.209 31.9479 123.63 33.9271 123.63 36.1903C123.63 38.4441 123.209 40.4138 122.366 42.0994C121.523 43.785 120.339 45.0966 118.815 46.0341C117.29 46.9716 115.505 47.4403 113.46 47.4403ZM113.474 43.875C114.799 43.875 115.898 43.5246 116.769 42.8239C117.64 42.1231 118.284 41.1903 118.701 40.0256C119.127 38.8608 119.34 37.5777 119.34 36.1761C119.34 34.7841 119.127 33.5057 118.701 32.3409C118.284 31.1667 117.64 30.2244 116.769 29.5142C115.898 28.804 114.799 28.4489 113.474 28.4489C112.138 28.4489 111.031 28.804 110.15 29.5142C109.279 30.2244 108.63 31.1667 108.204 32.3409C107.787 33.5057 107.579 34.7841 107.579 36.1761C107.579 37.5777 107.787 38.8608 108.204 40.0256C108.63 41.1903 109.279 42.1231 110.15 42.8239C111.031 43.5246 112.138 43.875 113.474 43.875ZM127.078 41.233H131.425C131.482 42.1231 131.884 42.8097 132.632 43.2926C133.39 43.7756 134.37 44.017 135.572 44.017C136.794 44.017 137.836 43.7566 138.697 43.2358C139.559 42.7055 139.99 41.8864 139.99 40.7784C139.99 40.1155 139.824 39.5379 139.493 39.0455C139.171 38.5436 138.712 38.1553 138.115 37.8807C137.528 37.6061 136.832 37.4688 136.027 37.4688H132.476V34.1307H136.027C137.23 34.1307 138.129 33.8561 138.726 33.3068C139.322 32.7576 139.621 32.071 139.621 31.2472C139.621 30.357 139.299 29.642 138.655 29.1023C138.02 28.553 137.135 28.2784 135.999 28.2784C134.843 28.2784 133.882 28.5388 133.115 29.0597C132.348 29.571 131.946 30.2339 131.908 31.0483H127.618C127.646 29.8267 128.016 28.7566 128.726 27.8381C129.446 26.91 130.411 26.1903 131.624 25.679C132.845 25.1581 134.232 24.8977 135.786 24.8977C137.405 24.8977 138.806 25.1581 139.99 25.679C141.174 26.1998 142.088 26.9195 142.732 27.8381C143.385 28.7566 143.712 29.8125 143.712 31.0057C143.712 32.2083 143.352 33.1932 142.632 33.9602C141.922 34.7178 140.994 35.2623 139.848 35.5938V35.821C140.691 35.8778 141.439 36.1335 142.092 36.5881C142.746 37.0426 143.257 37.6439 143.626 38.392C143.996 39.1402 144.18 39.9877 144.18 40.9347C144.18 42.2699 143.811 43.4252 143.072 44.4006C142.343 45.3759 141.33 46.1288 140.033 46.6591C138.745 47.1799 137.272 47.4403 135.615 47.4403C134.005 47.4403 132.561 47.1894 131.283 46.6875C130.014 46.1761 129.005 45.4564 128.257 44.5284C127.518 43.6004 127.125 42.5019 127.078 41.233ZM146.435 53.2926V43.321H148.211C148.665 42.9044 149.049 42.4072 149.362 41.8295C149.683 41.2519 149.953 40.5653 150.171 39.7699C150.398 38.9744 150.588 38.0464 150.739 36.9858C150.891 35.9157 151.023 34.6941 151.137 33.321L151.819 25.1818H166.648V43.321H170.001V53.2926H165.853V47H150.64V53.2926H146.435ZM152.756 43.321H162.501V28.8182H155.626L155.171 33.321C154.953 35.6127 154.679 37.6013 154.347 39.2869C154.016 40.9631 153.486 42.3078 152.756 43.321ZM180.501 47.483C179.119 47.483 177.869 47.2273 176.751 46.7159C175.634 46.1951 174.749 45.4422 174.095 44.4574C173.451 43.4725 173.129 42.2652 173.129 40.8352C173.129 39.6042 173.366 38.5909 173.839 37.7955C174.313 37 174.952 36.3703 175.757 35.9062C176.562 35.4422 177.462 35.0919 178.456 34.8551C179.45 34.6184 180.464 34.4384 181.496 34.3153C182.803 34.1638 183.863 34.0407 184.678 33.946C185.492 33.8419 186.084 33.6761 186.453 33.4489C186.822 33.2216 187.007 32.8523 187.007 32.3409V32.2415C187.007 31.0009 186.657 30.0398 185.956 29.358C185.265 28.6761 184.232 28.3352 182.859 28.3352C181.429 28.3352 180.303 28.6525 179.479 29.2869C178.664 29.9119 178.101 30.608 177.788 31.375L173.797 30.4659C174.27 29.1402 174.962 28.0701 175.871 27.2557C176.789 26.4318 177.845 25.8352 179.038 25.4659C180.232 25.0871 181.486 24.8977 182.803 24.8977C183.674 24.8977 184.597 25.0019 185.572 25.2102C186.557 25.4091 187.476 25.7784 188.328 26.3182C189.19 26.858 189.895 27.6297 190.445 28.6335C190.994 29.6278 191.268 30.9205 191.268 32.5114V47H187.121V44.017H186.95C186.676 44.5663 186.264 45.1061 185.714 45.6364C185.165 46.1667 184.46 46.607 183.598 46.9574C182.736 47.3078 181.704 47.483 180.501 47.483ZM181.425 44.0739C182.599 44.0739 183.603 43.8419 184.436 43.3778C185.279 42.9138 185.918 42.3078 186.354 41.5597C186.799 40.8021 187.021 39.9924 187.021 39.1307V36.3182C186.87 36.4697 186.576 36.6117 186.141 36.7443C185.714 36.8674 185.227 36.9763 184.678 37.071C184.128 37.1562 183.593 37.2367 183.072 37.3125C182.552 37.3788 182.116 37.4356 181.766 37.483C180.942 37.5871 180.189 37.7623 179.507 38.0085C178.835 38.2547 178.295 38.6098 177.888 39.0739C177.49 39.5284 177.291 40.1345 177.291 40.892C177.291 41.9432 177.679 42.7386 178.456 43.2784C179.232 43.8087 180.222 44.0739 181.425 44.0739ZM194.219 28.8466V25.1818H212.629V28.8466H205.512V47H201.364V28.8466H194.219ZM220.317 32.6818H226.652C229.322 32.6818 231.377 33.3447 232.817 34.6705C234.256 35.9962 234.976 37.7055 234.976 39.7983C234.976 41.1619 234.654 42.3883 234.01 43.4773C233.366 44.5663 232.424 45.428 231.183 46.0625C229.943 46.6875 228.432 47 226.652 47H217.121V25.1818H221.283V43.3352H226.652C227.874 43.3352 228.877 43.018 229.663 42.3835C230.449 41.7396 230.842 40.9205 230.842 39.9261C230.842 38.875 230.449 38.018 229.663 37.3551C228.877 36.6828 227.874 36.3466 226.652 36.3466H220.317V32.6818ZM254.486 41.0483L264.102 25.1818H268.676V47H264.514V31.1193L254.94 47H250.324V25.1818H254.486V41.0483ZM272.256 53.2926V43.321H274.031C274.486 42.9044 274.869 42.4072 275.182 41.8295C275.504 41.2519 275.774 40.5653 275.991 39.7699C276.219 38.9744 276.408 38.0464 276.56 36.9858C276.711 35.9157 276.844 34.6941 276.957 33.321L277.639 25.1818H292.469V43.321H295.821V53.2926H291.673V47H276.46V53.2926H272.256ZM278.577 43.321H288.321V28.8182H281.446L280.991 33.321C280.774 35.6127 280.499 37.6013 280.168 39.2869C279.836 40.9631 279.306 42.3078 278.577 43.321ZM309.376 47.4403C307.226 47.4403 305.375 46.9811 303.822 46.0625C302.278 45.1345 301.085 43.8324 300.242 42.1562C299.409 40.4706 298.992 38.4962 298.992 36.233C298.992 33.9981 299.409 32.0284 300.242 30.3239C301.085 28.6193 302.259 27.2888 303.765 26.3324C305.28 25.3759 307.051 24.8977 309.077 24.8977C310.308 24.8977 311.502 25.1013 312.657 25.5085C313.812 25.9157 314.849 26.5549 315.768 27.4261C316.686 28.2973 317.411 29.429 317.941 30.821C318.471 32.2036 318.737 33.8845 318.737 35.8636V37.3693H301.393V34.1875H314.575C314.575 33.0701 314.347 32.0805 313.893 31.2188C313.438 30.3475 312.799 29.661 311.975 29.1591C311.161 28.6572 310.204 28.4062 309.106 28.4062C307.913 28.4062 306.871 28.6998 305.981 29.2869C305.1 29.8646 304.418 30.6222 303.935 31.5597C303.462 32.4877 303.225 33.4962 303.225 34.5852V37.071C303.225 38.5294 303.481 39.7699 303.992 40.7926C304.513 41.8153 305.237 42.5966 306.165 43.1364C307.094 43.6667 308.178 43.9318 309.418 43.9318C310.223 43.9318 310.957 43.8182 311.62 43.5909C312.283 43.3542 312.856 43.0038 313.339 42.5398C313.822 42.0758 314.191 41.5028 314.447 40.821L318.467 41.5455C318.145 42.7292 317.567 43.7661 316.734 44.6562C315.91 45.5369 314.873 46.2235 313.623 46.7159C312.382 47.1989 310.967 47.4403 309.376 47.4403ZM334.429 34.4148V38.108H322.795V34.4148H334.429ZM326.247 25.1818V47H322V25.1818H326.247ZM341.077 47.4403C339.05 47.4403 337.279 46.9669 335.764 46.0199C334.249 45.0729 333.075 43.7566 332.241 42.071C331.408 40.3759 330.991 38.411 330.991 36.1761C330.991 33.9223 331.408 31.9527 332.241 30.267C333.075 28.572 334.249 27.2557 335.764 26.3182C337.279 25.3712 339.05 24.8977 341.077 24.8977C343.113 24.8977 344.884 25.3712 346.389 26.3182C347.904 27.2557 349.079 28.572 349.912 30.267C350.755 31.9527 351.176 33.9223 351.176 36.1761C351.176 38.411 350.755 40.3759 349.912 42.071C349.079 43.7566 347.904 45.0729 346.389 46.0199C344.884 46.9669 343.113 47.4403 341.077 47.4403ZM341.077 43.804C342.45 43.804 343.572 43.4583 344.443 42.767C345.324 42.0663 345.973 41.1383 346.389 39.983C346.806 38.8277 347.014 37.5587 347.014 36.1761C347.014 34.7841 346.806 33.5104 346.389 32.3551C345.973 31.1903 345.324 30.2576 344.443 29.5568C343.572 28.8561 342.45 28.5057 341.077 28.5057C339.713 28.5057 338.591 28.8561 337.71 29.5568C336.83 30.2576 336.181 31.1903 335.764 32.3551C335.348 33.5104 335.139 34.7841 335.139 36.1761C335.139 37.5587 335.348 38.8277 335.764 39.983C336.181 41.1383 336.83 42.0663 337.71 42.767C338.591 43.4583 339.713 43.804 341.077 43.804Z" fill="white"/>
<defs>
<linearGradient id="paint0_linear_220_4" x1="2.0131e-06" y1="14.3544" x2="385.471" y2="156.044" gradientUnits="userSpaceOnUse">
<stop stop-color="#4153F4"/>
<stop offset="0.520833" stop-color="#A300BD"/>
<stop offset="1" stop-color="#FF0000"/>
</linearGradient>
</defs>
</svg>
