<svg width="209" height="50" viewBox="0 0 209 50" fill="none" xmlns="http://www.w3.org/2000/svg">
<path d="M0.578125 0.999999H11.4375V21.9375H11.75L25.9688 0.999999H35.1875V41H24.3281V19.9844H24.0938L9.64063 41H0.578125V0.999999ZM38.6836 49.9063V32.875H40.8711C41.5612 32.6016 42.1016 31.957 42.4922 30.9414C42.8958 29.9128 43.2018 28.7083 43.4102 27.3281C43.6315 25.9479 43.7878 24.5547 43.8789 23.1484C43.9831 21.7292 44.0742 20.4922 44.1523 19.4375L44.7773 11H70.4023V32.875H75.0898V49.9063H64.9336V41H49.1523V49.9063H38.6836ZM51.1836 32.875H60.4023V18.8125H53.6836V19.4375C53.5273 22.6797 53.2669 25.3815 52.9023 27.543C52.5378 29.6914 51.9648 31.4687 51.1836 32.875ZM93.4736 41.5469C90.2705 41.5469 87.5101 40.9349 85.1924 39.7109C82.8877 38.474 81.1104 36.7031 79.8604 34.3984C78.6234 32.0807 78.0049 29.3073 78.0049 26.0781C78.0049 22.9792 78.6299 20.2708 79.8799 17.9531C81.1299 15.6354 82.8942 13.832 85.1729 12.543C87.4515 11.2539 90.1403 10.6094 93.2393 10.6094C95.5049 10.6094 97.5557 10.9609 99.3916 11.6641C101.228 12.3672 102.797 13.3893 104.099 14.7305C105.401 16.0586 106.403 17.6732 107.106 19.5742C107.81 21.4753 108.161 23.6172 108.161 26V28.5H81.3643V22.5625H98.2393C98.2262 21.7031 98.0049 20.9479 97.5752 20.2969C97.1585 19.6328 96.5921 19.1185 95.876 18.7539C95.1729 18.3763 94.3721 18.1875 93.4736 18.1875C92.6012 18.1875 91.8005 18.3763 91.0713 18.7539C90.3421 19.1185 89.7562 19.6263 89.3135 20.2773C88.8838 20.9284 88.6559 21.6901 88.6299 22.5625V28.9688C88.6299 29.9323 88.8317 30.7917 89.2354 31.5469C89.639 32.3021 90.2184 32.8945 90.9736 33.3242C91.7288 33.7539 92.6403 33.9688 93.708 33.9688C94.4502 33.9688 95.1273 33.8646 95.7393 33.6562C96.3643 33.4479 96.8981 33.1484 97.3408 32.7578C97.7835 32.3542 98.109 31.8724 98.3174 31.3125H108.161C107.823 33.3958 107.022 35.2057 105.759 36.7422C104.496 38.2656 102.823 39.4505 100.739 40.2969C98.6689 41.1302 96.2471 41.5469 93.4736 41.5469ZM122.717 27.25L131.076 11H141.232V41H131.076V24.6719L122.717 41H112.561V11H122.717V27.25ZM130.764 0.218748H137.561C137.548 2.75781 136.577 4.78906 134.65 6.3125C132.723 7.82292 130.126 8.57813 126.857 8.57813C123.563 8.57813 120.952 7.82292 119.025 6.3125C117.098 4.78906 116.141 2.75781 116.154 0.218748H122.873C122.86 1.03906 123.153 1.79427 123.752 2.48437C124.364 3.16146 125.399 3.5 126.857 3.5C128.251 3.5 129.247 3.16797 129.846 2.50391C130.445 1.83984 130.751 1.07812 130.764 0.218748ZM146.721 41V11H157.502V21.7031H159.377L165.783 11H178.127L168.518 26.1562L178.205 41H165.705L159.924 31.7031H157.502V41H146.721ZM189.079 41.4688C187.165 41.4688 185.472 41.1563 184.001 40.5312C182.543 39.8932 181.397 38.9297 180.563 37.6406C179.73 36.3516 179.313 34.7109 179.313 32.7187C179.313 31.0781 179.593 29.6784 180.153 28.5195C180.713 27.3477 181.494 26.3906 182.497 25.6484C183.5 24.9062 184.665 24.3398 185.993 23.9492C187.334 23.5586 188.78 23.3047 190.329 23.1875C192.009 23.0573 193.356 22.901 194.372 22.7187C195.401 22.5234 196.143 22.2565 196.599 21.918C197.054 21.5664 197.282 21.1042 197.282 20.5312V20.4531C197.282 19.6719 196.983 19.0729 196.384 18.6562C195.785 18.2396 195.017 18.0312 194.079 18.0312C193.05 18.0312 192.211 18.2591 191.56 18.7148C190.922 19.1576 190.537 19.8411 190.407 20.7656H180.485C180.616 18.9427 181.195 17.263 182.224 15.7266C183.265 14.1771 184.782 12.9401 186.774 12.0156C188.767 11.0781 191.254 10.6094 194.235 10.6094C196.384 10.6094 198.311 10.8633 200.017 11.3711C201.722 11.8659 203.174 12.5625 204.372 13.4609C205.57 14.3464 206.481 15.388 207.106 16.5859C207.744 17.7708 208.063 19.0599 208.063 20.4531V41H197.985V36.7812H197.751C197.152 37.901 196.423 38.806 195.563 39.4961C194.717 40.1862 193.747 40.6875 192.653 41C191.573 41.3125 190.381 41.4688 189.079 41.4688ZM192.595 34.6719C193.415 34.6719 194.183 34.5026 194.899 34.1641C195.629 33.8255 196.221 33.3372 196.677 32.6992C197.132 32.0612 197.36 31.2865 197.36 30.375V27.875C197.074 27.9922 196.768 28.1029 196.442 28.207C196.13 28.3112 195.791 28.4089 195.427 28.5C195.075 28.5911 194.698 28.6758 194.294 28.7539C193.903 28.832 193.493 28.9036 193.063 28.9688C192.23 29.099 191.547 29.3138 191.013 29.6133C190.492 29.8997 190.101 30.2578 189.841 30.6875C189.593 31.1042 189.47 31.5729 189.47 32.0937C189.47 32.9271 189.763 33.5651 190.349 34.0078C190.935 34.4505 191.683 34.6719 192.595 34.6719Z" fill="url(#paint0_linear_188_44)"/>
<defs>
<linearGradient id="paint0_linear_188_44" x1="-2" y1="4.99999" x2="227" y2="41" gradientUnits="userSpaceOnUse">
<stop stop-color="#404BAE"/>
<stop offset="0.520833" stop-color="#A300BD"/>
<stop offset="1" stop-color="#FF0000"/>
</linearGradient>
</defs>
</svg>
